<svg class="rita-svg" width="100%" height="100%" viewBox="0 0 5378 7178" xmlns="http://www.w3.org/2000/svg">
    <g fill="none" fill-rule="evenodd">
        <g transform="translate(-13959 -2878)" fill="#0AEDC1" fill-rule="nonzero" stroke="#0AEDC1" stroke-width="50">
            <g transform="translate(13352 2917)">
                <path id="Path" transform="translate(1863.8 3443) rotate(42) translate(-1863.8 -3443)" d="m1747.2 4698.6-663.77-293.7 1113.2-2237.2 442.11 743.18-891.55 1787.7z" fill-opacity=".48" stroke-opacity=".48"/>
                <path id="a" transform="translate(1366.3 4456.5) rotate(-45) translate(-1366.3 -4456.5)" d="m1411.6 5556.7 729.67-1885.7-708.38-306.41-837.13 2192.1 815.84 0.07913z"/>
                <path transform="translate(1920.3 2385.9) rotate(-73) translate(-1920.3 -2385.9)" d="m1938.2 3478.6 831.12-2162.3-786.67-111.35-908.16 2360.5 863.71-86.839z"/>
                <path d="m4783.6 3390.5-3413.1-2672.3 336.74-718 4239.8 3315.8-3788.7 3779.1-334.69-749.83 2960-2954.8z"/>
            </g>
        </g>
    </g>
</svg>

